HIERARCHY
ROOT hip
{
  OFFSET 0.0 0.0 0.0
  CHANNELS 6 Xposition Yposition Zposition Zrotation Yrotation Xrotation
  JOINT abdomen
  {
    OFFSET 0.0 20.6881 -0.73152
    CHANNELS 3 Zrotation Xrotation Yrotation
    JOINT chest
    {
      OFFSET 0.0 11.7043 -0.48768
      CHANNELS 3 Zrotation Xrotation Yrotation
      JOINT neck
      {
        OFFSET 0.0 22.1894 -2.19456
        CHANNELS 3 Zrotation Xrotation Yrotation
        JOINT head
        {
          OFFSET -0.24384 7.07133 1.2192
          CHANNELS 3 Zrotation Xrotation Yrotation
          JOINT leftEye
          {
            OFFSET 4.14528 8.04674 8.04672
            CHANNELS 3 Zrotation Xrotation Yrotation
            End Site
            {
              OFFSET 1.0 0.0 0.0
            }
          }
          JOINT rightEye
          {
            OFFSET -3.6576 8.04674 8.04672
            CHANNELS 3 Zrotation Xrotation Yrotation
            End Site
            {
              OFFSET 1.0 0.0 0.0
            }
          }
        }
      }
      JOINT rCollar
      {
        OFFSET -2.68224 19.2634 -4.8768
        CHANNELS 3 Zrotation Xrotation Yrotation
        JOINT rShldr
        {
          OFFSET -8.77824 -1.95073 1.46304
          CHANNELS 3 Zrotation Xrotation Yrotation
          JOINT rForeArm
          {
            OFFSET -28.1742 -1.7115 0.48768
            CHANNELS 3 Zrotation Xrotation Yrotation
            JOINT rHand
            {
              OFFSET -22.5879 0.773209 7.07136
              CHANNELS 3 Zrotation Xrotation Yrotation
              JOINT rThumb1
              {
                OFFSET -1.2192 -0.487915 3.41376
                CHANNELS 3 Zrotation Xrotation Yrotation
                JOINT rThumb2
                {
                  OFFSET -3.37035 -0.52449 3.41376
                  CHANNELS 3 Zrotation Xrotation Yrotation
                  End Site
                  {
                    OFFSET -1.78271 -1.18214 1.43049
                  }
                }
              }
              JOINT rIndex1
              {
                OFFSET -7.75947 0.938293 5.60832
                CHANNELS 3 Zrotation Xrotation Yrotation
                JOINT rIndex2
                {
                  OFFSET -2.54057 -0.884171 1.56538
                  CHANNELS 3 Zrotation Xrotation Yrotation
                  End Site
                  {
                    OFFSET -1.62519 -0.234802 1.16502
                  }
                }
              }
              JOINT rMid1
              {
                OFFSET -8.24714 1.18213 3.41376
                CHANNELS 3 Zrotation Xrotation Yrotation
                JOINT rMid2
                {
                  OFFSET -3.10165 -0.590103 1.0647
                  CHANNELS 3 Zrotation Xrotation Yrotation
                  End Site
                  {
                    OFFSET -2.48547 -0.328903 0.83742
                  }
                }
              }
              JOINT rRing1
              {
                OFFSET -8.82822 0.546677 1.51678
                CHANNELS 3 Zrotation Xrotation Yrotation
                JOINT rRing2
                {
                  OFFSET -2.60934 -0.819778 -0.0198488
                  CHANNELS 3 Zrotation Xrotation Yrotation
                  End Site
                  {
                    OFFSET -2.33842 -0.294052 0.168128
                  }
                }
              }
              JOINT rPinky1
              {
                OFFSET -8.27202 -0.0477905 -0.4584
                CHANNELS 3 Zrotation Xrotation Yrotation
                JOINT rPinky2
                {
                  OFFSET -1.82734 -0.647385 -0.700984
                  CHANNELS 3 Zrotation Xrotation Yrotation
                  End Site
                  {
                    OFFSET -1.69225 -0.51767 -0.607171
                  }
                }
              }
            }
          }
        }
      }
      JOINT lCollar
      {
        OFFSET 2.68224 19.2634 -4.8768
        CHANNELS 3 Zrotation Xrotation Yrotation
        JOINT lShldr
        {
          OFFSET 8.77824 -1.95073 1.46304
          CHANNELS 3 Zrotation Xrotation Yrotation
          JOINT lForeArm
          {
            OFFSET 28.1742 -1.7115 0.48768
            CHANNELS 3 Zrotation Xrotation Yrotation
            JOINT lHand
            {
              OFFSET 22.5879 0.773209 7.07136
              CHANNELS 3 Zrotation Xrotation Yrotation
              JOINT lThumb1
              {
                OFFSET 1.2192 -0.487915 3.41376
                CHANNELS 3 Zrotation Xrotation Yrotation
                JOINT lThumb2
                {
                  OFFSET 3.37035 -0.52449 3.41376
                  CHANNELS 3 Zrotation Xrotation Yrotation
                  End Site
                  {
                    OFFSET 1.78271 -1.18214 1.43049
                  }
                }
              }
              JOINT lIndex1
              {
                OFFSET 7.75947 0.938293 5.60832
                CHANNELS 3 Zrotation Xrotation Yrotation
                JOINT lIndex2
                {
                  OFFSET 2.54057 -0.884171 1.56538
                  CHANNELS 3 Zrotation Xrotation Yrotation
                  End Site
                  {
                    OFFSET 1.62519 -0.234802 1.16502
                  }
                }
              }
              JOINT lMid1
              {
                OFFSET 8.24714 1.18213 3.41376
                CHANNELS 3 Zrotation Xrotation Yrotation
                JOINT lMid2
                {
                  OFFSET 3.10165 -0.590103 1.0647
                  CHANNELS 3 Zrotation Xrotation Yrotation
                  End Site
                  {
                    OFFSET 2.48547 -0.328903 0.83742
                  }
                }
              }
              JOINT lRing1
              {
                OFFSET 8.82822 0.546677 1.51678
                CHANNELS 3 Zrotation Xrotation Yrotation
                JOINT lRing2
                {
                  OFFSET 2.60934 -0.819778 -0.0198488
                  CHANNELS 3 Zrotation Xrotation Yrotation
                  End Site
                  {
                    OFFSET 2.33842 -0.294052 0.168128
                  }
                }
              }
              JOINT lPinky1
              {
                OFFSET 8.27202 -0.0477905 -0.4584
                CHANNELS 3 Zrotation Xrotation Yrotation
                JOINT lPinky2
                {
                  OFFSET 1.82734 -0.647385 -0.700984
                  CHANNELS 3 Zrotation Xrotation Yrotation
                  End Site
                  {
                    OFFSET 1.69225 -0.51767 -0.607171
                  }
                }
              }
            }
          }
        }
      }
    }
  }
  JOINT rButtock
  {
    OFFSET -8.77824 4.35084 1.2192
    CHANNELS 3 Zrotation Xrotation Yrotation
    JOINT rThigh
    {
      OFFSET 0.0 -1.70687 -2.19456
      CHANNELS 3 Zrotation Xrotation Yrotation
      JOINT rShin
      {
        OFFSET 0.0 -36.8199 0.73152
        CHANNELS 3 Zrotation Xrotation Yrotation
        JOINT rFoot
        {
          OFFSET 0.73152 -45.1104 -5.12064
          CHANNELS 3 Zrotation Xrotation Yrotation
          End Site
          {
            OFFSET -1.1221 -3.69964 12.103
          }
        }
      }
    }
  }
  JOINT lButtock
  {
    OFFSET 8.77824 4.35084 1.2192
    CHANNELS 3 Zrotation Xrotation Yrotation
    JOINT lThigh
    {
      OFFSET 0.0 -1.70687 -2.19456
      CHANNELS 3 Zrotation Xrotation Yrotation
      JOINT lShin
      {
        OFFSET 0.0 -36.8199 0.73152
        CHANNELS 3 Zrotation Xrotation Yrotation
        JOINT lFoot
        {
          OFFSET -0.73152 -45.1104 -5.12064
          CHANNELS 3 Zrotation Xrotation Yrotation
          End Site
          {
            OFFSET 1.1221 -3.69964 12.103
          }
        }
      }
    }
  }
}
MOTION
Frames: 6
Frame Time: 0.00833333
29.4034 79.2878 -27.6193 -3.4766 3.6278 9.7247 6.13106 9.10395 2.12362 -0.779016 -1.2824 0.838776 2.11755 6.45191 -2.59488 -2.33748 -35.7386 -6.48419 -0.0 0.0 0.0 -0.0 0.0 0.0 1.47962e-13 -1.34181e-13 2.39318e-14 85.8991 16.1164 -16.5479 -18.6943 -11.4435 35.6271 0.00247657 0.266684 0.0373721 -1.27846e-09 6.80969e-11 -1.12944e-10 -2.20854e-09 1.1901e-10 -1.9174e-10 -1.27846e-09 6.80977e-11 -1.12952e-10 7.73091 5.47488 0.417314 -1.27847e-09 6.80967e-11 -1.1294e-10 2.90554 0.965183 0.102902 -1.27846e-09 6.80965e-11 -1.12943e-10 10.2786 0.731801 0.0259123 -1.27847e-09 6.80995e-11 -1.12935e-10 2.22167 -0.733487 -0.20892 1.47963e-13 -1.34178e-13 2.36057e-14 -73.3134 32.0832 2.79087 23.5241 -18.2395 -48.2038 0.0361532 2.04021 -0.284601 -9.60582e-10 -1.50748e-09 9.05083e-11 -1.66102e-09 -2.60839e-09 1.55417e-10 -9.60591e-10 -1.50749e-09 9.05116e-11 -7.73091 5.47488 -0.417314 -9.60587e-10 -1.50749e-09 9.05057e-11 -2.90554 0.965183 -0.102902 -9.60584e-10 -1.50748e-09 9.05073e-11 -10.2786 0.731801 -0.0259123 -9.60583e-10 -1.50748e-09 9.04967e-11 -2.22167 -0.733487 0.20892 -2.03217e-16 0.0 -3.88251e-19 8.35341 -48.5458 -3.10807 -0.407454 39.3289 0.0536174 0.214696 0.238001 7.65228 2.03217e-16 0.0 3.88251e-19 14.2481 -31.5622 15.9093 5.76436 81.0828 -6.32075 0.127071 6.39437 -13.3469
29.3848 79.4741 -26.4896 -3.7746 3.5077 9.46 6.35614 9.31504 2.36051 -0.724021 -1.41452 0.908532 2.13332 6.59254 -2.62296 -2.32731 -35.7377 -6.53383 -0.0 0.0 0.0 -0.0 0.0 0.0 1.3768e-13 -2.16651e-13 2.87085e-14 85.9263 17.5676 -16.4376 -18.8676 -11.6421 36.0247 -0.000301532 1.41507 0.198855 -1.18264e-09 1.46972e-11 -1.14781e-10 -2.04336e-09 2.64249e-11 -1.93458e-10 -1.18264e-09 1.46985e-11 -1.14786e-10 7.73091 5.47488 0.417314 -1.18264e-09 1.46973e-11 -1.14776e-10 2.90554 0.965183 0.102902 -1.18264e-09 1.46969e-11 -1.14778e-10 10.2786 0.731801 0.0259123 -1.18264e-09 1.46991e-11 -1.14772e-10 2.22167 -0.733487 -0.20892 1.37655e-13 -2.1665e-13 2.84037e-14 -73.9195 33.2995 3.38624 22.9539 -17.2692 -46.4325 0.0196249 1.4931 -0.208796 -9.68941e-10 -1.43117e-09 1.68442e-10 -1.67434e-09 -2.47429e-09 2.89427e-10 -9.68945e-10 -1.43116e-09 1.68442e-10 -7.73091 5.47488 -0.417314 -9.68942e-10 -1.43117e-09 1.6844e-10 -2.90554 0.965183 -0.102902 -9.68943e-10 -1.43116e-09 1.68441e-10 -10.2786 0.731801 -0.0259123 -9.68942e-10 -1.43116e-09 1.6843e-10 -2.22167 -0.733487 0.20892 -2.03217e-16 0.0 -3.88251e-19 8.66303 -47.4828 -3.20499 -0.402365 39.3718 0.0862333 0.33717 -0.431475 7.92142 2.03217e-16 0.0 3.88251e-19 15.141 -33.6969 15.8029 8.27341 83.4687 -8.79986 -0.0686026 5.73417 -12.3264
29.3839 79.6856 -25.3545 -4.0354 3.4058 9.2062 6.55728 9.46539 2.59819 -0.682719 -1.51721 0.976759 2.16593 6.75836 -2.6454 -2.31752 -35.7124 -6.57239 -0.0 0.0 0.0 -0.0 0.0 0.0 1.30035e-13 -2.63986e-13 2.95692e-14 85.9812 19.095 -16.424 -19.1303 -11.9557 36.6082 -0.00663736 2.32553 0.327014 -1.12126e-09 2.20031e-11 -1.50663e-10 -1.93778e-09 3.87932e-11 -2.54577e-10 -1.12125e-09 2.20047e-11 -1.50666e-10 7.73091 5.47488 0.417314 -1.12126e-09 2.20035e-11 -1.50657e-10 2.90554 0.965183 0.102902 -1.12125e-09 2.20031e-11 -1.5066e-10 10.2786 0.731801 0.0259123 -1.12126e-09 2.20047e-11 -1.50653e-10 2.22167 -0.733487 -0.20892 1.29984e-13 -2.63986e-13 2.9271e-14 -74.6021 34.4862 4.01259 22.3881 -16.3512 -44.8516 0.000260735 0.461069 -0.0648004 -9.70332e-10 -1.35389e-09 2.12525e-10 -1.67606e-09 -2.33959e-09 3.6485e-10 -9.70334e-10 -1.35388e-09 2.12521e-10 -7.73091 5.47488 -0.417314 -9.70331e-10 -1.35389e-09 2.12521e-10 -2.90554 0.965183 -0.102902 -9.70334e-10 -1.35389e-09 2.12522e-10 -10.2786 0.731801 -0.0259123 -9.70332e-10 -1.35388e-09 2.12512e-10 -2.22167 -0.733487 0.20892 -2.03217e-16 0.0 -3.88251e-19 8.95422 -46.3911 -3.27782 -0.395753 39.3363 0.118148 0.460038 -1.08892 8.1865 2.03217e-16 0.0 3.88251e-19 15.9061 -35.763 15.6517 12.4739 85.475 -12.9723 -0.186702 5.21454 -11.2295
29.3881 80.0583 -24.2131 -4.2744 3.3029 8.9786 6.73668 9.54725 2.82501 -0.657437 -1.58553 1.04003 2.21704 6.9605 -2.66001 -2.30979 -35.6692 -6.59615 -0.0 0.0 0.0 -0.0 0.0 0.0 1.34539e-13 -2.65079e-13 2.63902e-14 86.0778 20.7531 -16.5255 -19.4767 -12.3723 37.4127 -0.0123508 2.95529 0.41573 -1.16961e-09 1.82497e-10 -2.85439e-10 -2.02213e-09 3.15902e-10 -4.87214e-10 -1.16961e-09 1.82498e-10 -2.85442e-10 7.73091 5.47488 0.417314 -1.16962e-09 1.82498e-10 -2.85431e-10 2.90554 0.965183 0.102902 -1.16961e-09 1.82498e-10 -2.85437e-10 10.2786 0.731801 0.0259123 -1.16962e-09 1.82498e-10 -2.8543e-10 2.22167 -0.733487 -0.20892 1.34457e-13 -2.6508e-13 2.60719e-14 -75.3681 35.6689 4.6593 21.858 -15.534 -43.4761 -0.0139406 -1.38338 0.193544 -1.02153e-09 -1.32208e-09 2.05807e-10 -1.76452e-09 -2.28525e-09 3.51798e-10 -1.02154e-09 -1.32208e-09 2.05802e-10 -7.73091 5.47488 -0.417314 -1.02153e-09 -1.32208e-09 2.05801e-10 -2.90554 0.965183 -0.102902 -1.02154e-09 -1.32208e-09 2.05802e-10 -10.2786 0.731801 -0.0259123 -1.02153e-09 -1.32207e-09 2.05795e-10 -2.22167 -0.733487 0.20892 -2.03217e-16 0.0 -3.88251e-19 9.20875 -45.2711 -3.34347 -0.387144 39.2206 0.149626 0.583845 -1.74038 8.44783 2.03217e-16 0.0 3.88251e-19 16.5171 -37.784 15.4289 20.1852 87.0744 -20.6581 -0.219159 4.88443 -10.0182
29.4058 80.3119 -23.0741 -4.4994 3.1883 8.782 6.89133 9.57962 3.0336 -0.642688 -1.62569 1.09654 2.28305 7.20187 -2.66825 -2.29225 -35.6197 -6.60381 -0.0 0.0 0.0 -0.0 0.0 0.0 1.43214e-13 -2.34167e-13 2.07978e-14 86.2351 22.5367 -16.7477 -19.8968 -12.8819 38.4422 -0.0155442 3.38539 0.476362 -1.25798e-09 4.48358e-10 -4.90348e-10 -2.17584e-09 7.75015e-10 -8.41443e-10 -1.25797e-09 4.48359e-10 -4.90354e-10 7.73091 5.47488 0.417314 -1.25798e-09 4.4836e-10 -4.9034e-10 2.90554 0.965183 0.102902 -1.25797e-09 4.4836e-10 -4.90349e-10 10.2786 0.731801 0.0259123 -1.25798e-09 4.4836e-10 -4.90341e-10 2.22167 -0.733487 -0.20892 1.43095e-13 -2.3417e-13 2.04438e-14 -76.21 36.8568 5.32475 21.4019 -14.8753 -42.256 -0.00442686 -4.07706 0.572196 -1.08741e-09 -1.27623e-09 1.46264e-10 -1.87847e-09 -2.20715e-09 2.4713e-10 -1.08742e-09 -1.27623e-09 1.46258e-10 -7.73091 5.47488 -0.417314 -1.08742e-09 -1.27623e-09 1.46255e-10 -2.90554 0.965183 -0.102902 -1.08742e-09 -1.27623e-09 1.46257e-10 -10.2786 0.731801 -0.0259123 -1.08741e-09 -1.27622e-09 1.46254e-10 -2.22167 -0.733487 0.20892 -2.03217e-16 0.0 -3.88251e-19 9.42065 -44.1085 -3.39146 -0.376098 39.0231 0.181035 0.706047 -2.38572 8.68451 2.03217e-16 0.0 3.88251e-19 16.9529 -39.763 15.1032 36.0364 88.2388 -36.4831 -0.213041 4.53192 -8.66682
29.436 80.4417 -21.936 -4.7173 3.039 8.6173 7.0214 9.56582 3.25514 -0.637781 -1.64415 1.15535 2.36282 7.45522 -2.67398 -2.26995 -35.5409 -6.60471 -0.0 0.0 0.0 -0.0 0.0 0.0 1.40641e-13 -1.85564e-13 1.1851e-14 86.4437 24.3188 -17.0659 -20.3746 -13.4844 39.6276 -0.0168724 3.65136 0.51387 -1.26922e-09 6.47367e-10 -6.41051e-10 -2.1961e-09 1.11866e-09 -1.10244e-09 -1.26921e-09 6.47368e-10 -6.41059e-10 7.73091 5.47488 0.417314 -1.26922e-09 6.4737e-10 -6.41042e-10 2.90554 0.965183 0.102902 -1.26921e-09 6.47371e-10 -6.41054e-10 10.2786 0.731801 0.0259123 -1.26922e-09 6.4737e-10 -6.41045e-10 2.22167 -0.733487 -0.20892 1.40493e-13 -1.85568e-13 1.14643e-14 -77.1226 37.9827 6.03977 20.9933 -14.3142 -41.1566 0.0417352 -6.85498 0.966646 -1.06657e-09 -1.1565e-09 7.35479e-11 -1.84261e-09 -2.00121e-09 1.20454e-10 -1.06659e-09 -1.15651e-09 7.35414e-11 -7.73091 5.47488 -0.417314 -1.06658e-09 -1.15651e-09 7.35369e-11 -2.90554 0.965183 -0.102902 -1.06659e-09 -1.15651e-09 7.35395e-11 -10.2786 0.731801 -0.0259123 -1.06656e-09 -1.1565e-09 7.35404e-11 -2.22167 -0.733487 0.20892 -2.03217e-16 0.0 -3.88251e-19 9.62789 -42.913 -3.39776 -0.363358 38.7489 0.211092 0.825595 -3.01157 8.91163 2.03217e-16 0.0 3.88251e-19 17.2582 -41.6459 14.7286 66.9605 88.852 -67.3824 -0.168503 4.20962 -7.27541
